<svg width="295" height="245" viewBox="0 0 295 245" fill="none" xmlns="http://www.w3.org/2000/svg"><g clip-path="url(#a)"><path d="M330 215.279H0v.132h330v-.132zm-80.718 6.97h-22.704v.132h22.704v-.132zm-175.956.132H60.522v.131h12.804v-.131zm92.334-.395h-25.872v.132h25.872v-.132zm-26.598-2.367h-11.55v.131h11.55v-.131zm141.174.066h-34.98v.131h34.98v-.131zm9.702-86.664c-8.118-12.296-.726-25.579-1.914-39.256-1.254-13.676-14.322-16.701-11.814-28.274 2.838-13.48-4.752-26.367-13.398-26.367S246.51 52.077 249.414 65.49c2.442 11.639-10.626 14.598-11.814 28.274-1.254 13.677 6.204 26.96-1.914 39.256-8.117 12.296-6.006 28.603-1.386 36.69 1.254 2.236 2.772 4.209 4.356 5.918 13.002 14.006 35.508 14.006 48.51 0a32.645 32.645 0 0 0 4.356-5.918c4.422-8.087 6.534-24.394-1.584-36.69z" fill="#E0E0E0"/><path d="M266.838 215.279h-8.184v-68.844c0-2.236 1.848-4.077 4.092-4.077 2.244 0 4.092 1.841 4.092 4.077v68.844z" fill="#F0F0F0"/><path d="M211.133 215.279h-11.154v-68.844c0-3.091 2.508-5.59 5.61-5.59 3.102 0 5.61 2.499 5.61 5.59v68.844h-.066z" fill="#E0E0E0"/><path d="M205.523 196.736c19.028 0 34.452-15.367 34.452-34.323 0-18.957-15.424-34.324-34.452-34.324-19.027 0-34.452 15.367-34.452 34.324 0 18.956 15.425 34.323 34.452 34.323z" fill="#F0F0F0"/><path d="M246.025 152.141c1.811-7.26-2.629-14.608-9.917-16.411-7.287-1.804-14.662 2.619-16.473 9.88-1.81 7.26 2.63 14.608 9.917 16.411 7.288 1.804 14.663-2.62 16.473-9.88zm-60.331-9.998c.715-4.373-2.263-8.495-6.652-9.208-4.389-.712-8.527 2.255-9.242 6.628-.715 4.373 2.263 8.495 6.652 9.208 4.389.712 8.527-2.255 9.242-6.628z" fill="#F0F0F0"/><path d="M186.45 142.292c3.098 0 5.61-2.502 5.61-5.589 0-3.087-2.512-5.589-5.61-5.589-3.098 0-5.61 2.502-5.61 5.589 0 3.087 2.512 5.589 5.61 5.589z" fill="#F0F0F0"/><path d="M134.64 174.183c-5.742.855-10.692 2.893-14.982 5.72-.066-5.194-.99-10.126-3.432-14.137-3.762 3.617-6.732 8.351-9.24 13.348-.924-9.468-3.432-18.674-8.976-24.526-8.316 5.195-12.606 13.874-14.586 23.014-3.3-5.852-7.854-11.31-14.19-15.255-5.082 5.326-6.666 12.691-6.534 20.252-5.742-6.707-12.144-11.901-18.414-12.493-1.518 10.586 1.716 20.581 5.874 28.472 5.478 10.323 16.302 16.701 28.05 16.701h27.126c11.55 0 22.374-6.115 27.786-16.307 3.432-6.444 5.082-14.729 1.518-24.789z" fill="#E0E0E0"/><path d="M126.918 37.611c3.366-9.797.66-16.767-7.524-16.767-5.148 0-11.484 2.762-17.688 7.233C100.98 25.513 99 24 95.832 24c-5.61 0-13.266 4.735-19.338 11.376-1.452-1.513-3.564-2.367-6.27-2.565-5.346-.328-11.814 2.433-17.424 6.839-.462-.724-1.32-1.184-2.508-1.25-3.102-.197-7.26 2.565-9.306 6.116-.132.197-.264.46-.33.657h87.846c.264-3.156-.264-5.72-1.584-7.562zm.264 59.376c1.65-4.8.33-8.153-3.696-8.153-2.508 0-5.61 1.315-8.646 3.485-.33-1.25-1.32-1.973-2.838-1.973-2.706 0-6.468 2.302-9.438 5.524-.726-.724-1.716-1.184-3.102-1.25-2.64-.131-5.808 1.184-8.514 3.354-.264-.33-.66-.592-1.188-.592-1.518-.066-3.564 1.25-4.554 2.959-.066.131-.132.197-.198.329h42.9c.198-1.513-.066-2.828-.726-3.683zm99.066-36.164c-.33-.066-.66-.066-.99-.066.33-4.8-1.518-7.825-5.412-7.825-2.838 0-6.27 1.578-9.834 4.274.99-9.271-2.244-15.255-9.57-15.255-5.874 0-13.398 3.945-20.79 10.324-.66-3.617-2.838-5.787-6.468-5.787-6.402 0-15.576 6.707-22.836 16.242-1.584-2.105-3.96-3.42-7.062-3.617-6.138-.46-13.728 3.42-20.46 9.732-.528-1.052-1.452-1.71-2.772-1.841-3.366-.264-7.986 3.221-10.626 7.89H231.66c2.838-7.102.528-13.217-5.412-14.071z" fill="#F0F0F0"/><path d="M165 245c70.678 0 127.974-3.327 127.974-7.43 0-4.104-57.296-7.43-127.974-7.43s-127.974 3.326-127.974 7.43c0 4.103 57.296 7.43 127.974 7.43z" fill="#F5F5F5"/><path d="M32.273 62.861l150.414 21.567 20.196 20.318-170.61-41.885z" fill="#407BFF"/><path opacity=".6" d="M32.273 62.861l150.414 21.567 20.196 20.318-170.61-41.885z" fill="#fff"/><path d="M32.273 62.861l150.414 21.567-6.996 29.392L32.273 62.861z" fill="#407BFF"/><path opacity=".2" d="M32.273 62.861l150.414 21.567-6.996 29.392L32.273 62.861z" fill="#000"/><path d="M172.656 28.866l8.712 40.768c.462 2.235-.924 4.405-3.168 4.865l-77.946 16.57c-2.244.46-4.422-.92-4.884-3.156l-8.712-40.767a3.942 3.942 0 0 1 .66-3.222c.594-.79 1.452-1.447 2.508-1.644l77.946-16.57a4.2 4.2 0 0 1 2.97.526c.924.526 1.65 1.512 1.914 2.63z" fill="#407BFF"/><path opacity=".4" d="M172.656 28.866l8.712 40.768c.462 2.235-.924 4.405-3.168 4.865l-77.946 16.57c-2.244.46-4.422-.92-4.884-3.156l-8.712-40.767a3.942 3.942 0 0 1 .66-3.222c.594-.79 1.452-1.447 2.508-1.644l77.946-16.57a4.2 4.2 0 0 1 2.97.526c.924.526 1.65 1.512 1.914 2.63z" fill="#000"/><path d="M170.741 26.236l-26.07 31.825c-4.95 6.05-13.53 7.89-20.526 4.34L87.317 43.924c.594-.79 1.452-1.447 2.508-1.644l77.946-16.57a4.2 4.2 0 0 1 2.97.526zM32.273 62.861l124.08 29.392 19.338 21.567L32.273 62.861z" fill="#407BFF"/><path opacity=".6" d="M32.273 62.861l124.08 29.392 19.338 21.567L32.273 62.861z" fill="#fff"/><path d="M77.515 91.166l-.333.568 13.78 8.043.334-.567-13.78-8.044zm19.88 11.652l-.334.568 4.955 2.891.333-.567-4.954-2.892zM32.273 62.861l124.08 29.392-24.156 28.998-99.924-58.39zm165.991 68.845c-.132 0-.33 0-.462-.066l-20.262-8.022c-.66-.263-.99-1.052-.726-1.71.264-.657 1.056-.986 1.716-.723l20.196 7.956c.66.263.99 1.052.726 1.71-.198.526-.66.855-1.188.855z" fill="#407BFF"/><path opacity=".3" d="M198.264 131.706c-.132 0-.33 0-.462-.066l-20.262-8.022c-.66-.263-.99-1.052-.726-1.71.264-.657 1.056-.986 1.716-.723l20.196 7.956c.66.263.99 1.052.726 1.71-.198.526-.66.855-1.188.855z" fill="#000"/><path d="M197.075 120.133c-.132 0-.33 0-.462-.066l-10.89-4.274c-.66-.263-.99-1.052-.726-1.71.264-.657 1.056-.986 1.716-.723l10.89 4.274c.66.263.99 1.052.726 1.71-.264.526-.726.789-1.254.789z" fill="#407BFF"/><path opacity=".5" d="M197.075 120.133c-.132 0-.33 0-.462-.066l-10.89-4.274c-.66-.263-.99-1.052-.726-1.71.264-.657 1.056-.986 1.716-.723l10.89 4.274c.66.263.99 1.052.726 1.71-.264.526-.726.789-1.254.789z" fill="#fff"/><path d="M174.372 131.508c-.132 0-.33 0-.462-.065l-19.734-7.825c-.66-.263-.99-1.052-.726-1.71.264-.657 1.056-.986 1.716-.723l19.734 7.759c.66.263.99 1.052.726 1.71-.264.526-.726.854-1.254.854z" fill="#407BFF"/><path opacity=".3" d="M174.372 131.508c-.132 0-.33 0-.462-.065l-19.734-7.825c-.66-.263-.99-1.052-.726-1.71.264-.657 1.056-.986 1.716-.723l19.734 7.759c.66.263.99 1.052.726 1.71-.264.526-.726.854-1.254.854z" fill="#000"/><path d="M245.717 72.264c1.716 3.419 3.366 6.773 4.884 10.323 1.518 3.485 2.97 7.036 4.158 10.718l.462 1.381c.066.263.198.657.264.92.066.33.132.592.132.921.198 1.118.198 2.17.198 3.222 0 2.038-.132 3.945-.264 5.852-.396 3.814-.99 7.562-1.782 11.31l-3.63-.395c-.066-3.682-.066-7.43-.198-11.112-.066-1.841-.198-3.617-.33-5.326-.066-.855-.264-1.71-.396-2.367-.066-.198-.066-.33-.132-.46-.066-.132-.066-.198-.132-.395l-.528-1.25a192.829 192.829 0 0 0-4.488-9.994l-4.818-9.995 6.6-3.353z" fill="#E4897B"/><path d="M250.205 115.399l-1.716 3.156 5.412 1.512s1.056-2.564-.198-4.537l-3.498-.131z" fill="#E4897B"/><path d="M246.443 123.092l5.016.394 2.508-3.485-5.412-1.446-2.112 4.537z" fill="#E4897B"/><path d="M223.013 49.513c-.066.394-.33.657-.594.592-.264-.066-.396-.395-.33-.79.066-.394.33-.657.594-.591.264.066.396.394.33.789z" fill="#263238"/><path d="M222.684 50.17s-1.32 2.039-2.508 2.894c.528.789 1.782.723 1.782.723l.726-3.617z" fill="#DE5753"/><path d="M224.862 47.672c-.066 0-.132 0-.198-.066-.66-.723-1.518-.592-1.518-.592-.132 0-.264-.066-.264-.197 0-.132.066-.263.198-.263.066 0 1.122-.197 1.98.789.066.066.066.263 0 .329h-.198z" fill="#263238"/><path d="M233.904 54.905c-.726 3.55-1.386 9.994 1.122 12.361 0 0-.99 3.617-7.59 3.617-7.26 0-3.432-3.617-3.432-3.617 3.96-.92 3.828-3.879 3.168-6.64l6.732-5.721z" fill="#E4897B"/><path d="M236.015 69.502c.528-1.71 1.122-3.682-.066-4.34-1.32-.657-8.514-1.38-10.956-.065-2.442 1.249-1.782 4.8-1.782 4.8l12.804-.395z" fill="#263238"/><path d="M251.196 233.493c-.528 0-.99-.066-1.188-.329-.066-.131-.132-.263 0-.526.066-.131.198-.197.33-.263.726-.131 2.046.724 2.112.789.066 0 .066.066.066.132s-.066.066-.066.066c-.198.065-.726.131-1.254.131zm-.594-.921h-.132c-.066 0-.198.066-.198.132-.132.197-.066.263 0 .263.198.263 1.188.263 1.914.131-.462-.197-1.122-.526-1.584-.526z" fill="#407BFF"/><path d="M252.449 233.361c-.528-.263-1.518-1.315-1.452-1.906 0-.066.066-.263.396-.329.198 0 .33 0 .462.131.594.461.66 1.841.66 1.907.066.066.066.132-.066.197.066 0 .066 0 0 0zm-.99-1.972c-.198 0-.198.066-.198.131-.066.329.528 1.118 1.056 1.513-.066-.395-.198-1.25-.594-1.513-.066-.131-.132-.131-.264-.131zm-29.369 2.104c-.594 0-1.254-.066-1.452-.395-.066-.065-.132-.263 0-.526.066-.131.198-.197.396-.263.792-.197 2.508.724 2.574.789.066 0 .066.066.066.132s-.066.066-.066.066c-.33.131-.924.197-1.518.197zm-.726-.986h-.198c-.132 0-.198.065-.198.131-.066.132-.066.197 0 .263.198.329 1.452.329 2.376.197-.594-.131-1.452-.591-1.98-.591z" fill="#407BFF"/><path d="M223.542 233.362c-.66-.264-1.782-1.316-1.716-1.842 0-.131.132-.263.396-.328.264 0 .462.065.66.197.594.526.726 1.775.726 1.841 0 .066 0 .066-.066.132.066 0 .066 0 0 0zm-1.122-1.973h-.066c-.198 0-.198.131-.198.131-.066.329.726 1.118 1.32 1.513-.066-.395-.264-1.184-.66-1.513-.132-.065-.264-.131-.396-.131z" fill="#407BFF"/><path d="M228.888 233.23h-4.818l-.528-11.178h4.884l.462 11.178zm29.105 0h-4.818l-2.442-11.178h4.818l2.442 11.178z" fill="#E4897B"/><path d="M252.846 232.638h5.478c.198 0 .396.132.396.329l.99 4.274c.132.46-.264.855-.726.855-1.914 0-2.838-.132-5.214-.132-1.452 0-4.488.132-6.534.132-1.98 0-2.31-1.973-1.452-2.17 3.762-.789 5.148-1.907 6.336-3.025.132-.131.396-.263.726-.263zm-28.776 0h5.28c.198 0 .396.132.396.329l.99 4.274c.132.46-.264.855-.726.855-1.914 0-4.686-.132-7.062-.132-2.838 0-5.214.132-8.514.132-1.98 0-2.574-1.973-1.716-2.17 3.762-.855 6.864-.921 10.164-2.959.396-.132.792-.329 1.188-.329z" fill="#263238"/><path d="M221.759 75.749a123.8 123.8 0 0 1-12.078-1.578c-1.98-.395-4.026-.79-6.006-1.381-1.98-.526-4.026-1.118-6.072-1.973-.528-.197-.99-.46-1.518-.657a12.09 12.09 0 0 1-1.65-.987c-.924-.657-1.782-1.249-2.574-1.907a134.357 134.357 0 0 1-4.62-4.01c-2.97-2.696-5.742-5.524-8.448-8.483l2.442-2.696 9.57 6.839c1.584 1.118 3.168 2.235 4.752 3.287.792.526 1.584.987 2.31 1.447.396.197.726.395.924.46.396.132.792.33 1.188.46 3.366 1.118 7.128 1.842 10.89 2.434 3.762.591 7.656 1.052 11.418 1.446l-.528 7.299z" fill="#E4897B"/><path d="M243.672 68.319c4.554 1.052 9.108 14.268 9.108 14.268l-9.372 6.707s-2.64-6.18-5.214-11.573c-2.574-5.589.858-10.455 5.478-9.402z" fill="#407BFF"/><path opacity=".4" d="M243.672 68.319c4.554 1.052 9.108 14.268 9.108 14.268l-9.372 6.707s-2.64-6.18-5.214-11.573c-2.574-5.589.858-10.455 5.478-9.402z" fill="#000"/><path d="M241.032 75.552l-1.848 4.142c1.914 4.143 3.696 8.22 4.158 9.337-.066-4.866-.99-10.98-2.31-13.48z" fill="#407BFF"/><path opacity=".6" d="M241.032 75.552l-1.848 4.142c1.914 4.143 3.696 8.22 4.158 9.337-.066-4.866-.99-10.98-2.31-13.48z" fill="#000"/><path d="M216.546 68.582s-5.148 5.786-.264 41.753h25.938c.198-3.945-2.31-23.342 1.518-42.016 0 0-4.422-.921-8.712-1.118-3.3-.132-8.118-.263-11.022 0-3.894.394-7.458 1.38-7.458 1.38z" fill="#407BFF"/><path opacity=".4" d="M216.546 68.582s-5.148 5.786-.264 41.753h25.938c.198-3.945-2.31-23.342 1.518-42.016 0 0-4.422-.921-8.712-1.118-3.3-.132-8.118-.263-11.022 0-3.894.394-7.458 1.38-7.458 1.38z" fill="#000"/><path d="M214.631 75.552c-.198 1.38-.33 2.958-.396 4.865 2.112-.657 4.818-1.71 7.194-3.353l-6.798-1.512z" fill="#407BFF"/><path opacity=".6" d="M214.631 75.552c-.198 1.38-.33 2.958-.396 4.865 2.112-.657 4.818-1.71 7.194-3.353l-6.798-1.512z" fill="#000"/><path d="M225.72 76.275c-3.498 3.09-16.698 2.761-16.698 2.761l-.462-12.756s7.524 1.118 13.53.986c7.392-.131 7.392 5.655 3.63 9.009z" fill="#407BFF"/><path opacity=".4" d="M225.72 76.275c-3.498 3.09-16.698 2.761-16.698 2.761l-.462-12.756s7.524 1.118 13.53.986c7.392-.131 7.392 5.655 3.63 9.009z" fill="#000"/><path d="M181.368 52.143l-3.3-3.88-3.564 3.946s2.178 3.682 5.676 3.09l1.188-3.156zm-8.052-8.416l-1.254 5.063 2.376 3.419 3.564-3.945-4.686-4.538z" fill="#E4897B"/><path d="M223.607 222.052l.198 5.786h4.884l-.264-5.786h-4.818zm31.944 0h-4.818l1.254 5.786h4.884l-1.32-5.786z" fill="#CE6F64"/><path d="M226.511 44.713c-4.356-1.973-5.742-10.718 6.798-8.548 0 0-1.914 2.104 1.914 3.419 3.828 1.25.66 9.469-8.712 5.129z" fill="#263238"/><path d="M235.949 51.288c-1.254 4.603-1.716 7.43-4.62 9.337-4.29 2.894-9.702-.46-9.834-5.326-.132-4.405 1.914-11.244 6.93-12.164 4.884-.92 8.778 3.55 7.524 8.153z" fill="#E4897B"/><path d="M233.111 38.466c2.97 1.644 6.996 2.63 6.6 4.998-.462 2.827 2.442 1.052 1.716 5.326-.462 2.761-5.61 11.178-9.24 10.783-5.478-.592-4.752-8.942-4.752-13.282 0-2.564-.132-11.047 5.676-7.825z" fill="#263238"/><path d="M226.776 42.214c-1.32.329-3.102 7.89 2.046 8.614 5.874.723-2.046-8.614-2.046-8.614z" fill="#263238"/><path d="M226.907 44.91c-1.65.132-5.28-1.775-4.818-4.734 0 0 2.31 3.419 4.818 4.734z" fill="#263238"/><path d="M229.284 51.354a6.004 6.004 0 0 1-2.376 2.564c-1.386.724-2.178-.328-1.848-1.71.264-1.248 1.32-3.155 2.772-3.287 1.452-.197 2.046 1.118 1.452 2.433z" fill="#E4897B"/><path d="M236.543 46.028c.99-.526 3.234-1.644 3.828-4.8 0 0 2.178 6.05-3.828 4.8z" fill="#263238"/><path d="M242.088 45.962c-.462-.263-1.584-.92-3.168-.329 0 0 2.046-2.63 3.168.33z" fill="#263238"/><path d="M225.455 110.335s5.478 36.889 8.514 50.763c3.3 15.123 15.774 65.622 15.774 65.622h8.91s-8.25-49.25-10.098-64.241c-2.046-16.307-6.336-52.144-6.336-52.144h-16.764z" fill="#407BFF"/><path opacity=".5" d="M225.455 110.335s5.478 36.889 8.514 50.763c3.3 15.123 15.774 65.622 15.774 65.622h8.91s-8.25-49.25-10.098-64.241c-2.046-16.307-6.336-52.144-6.336-52.144h-16.764z" fill="#fff"/><path d="M248.291 223.433c-.066 0 .924 3.419.924 3.419h9.966l-.198-3.025-10.692-.394z" fill="#407BFF"/><path opacity=".1" d="M248.291 223.433c-.066 0 .924 3.419.924 3.419h9.966l-.198-3.025-10.692-.394z" fill="#000"/><path d="M228.888 123.486c6.336 1.25 5.676 24.855 4.95 37.02-1.848-8.614-4.488-25.118-6.336-36.888a3.125 3.125 0 0 1 1.386-.132z" fill="#407BFF"/><path opacity=".4" d="M228.888 123.486c6.336 1.25 5.676 24.855 4.95 37.02-1.848-8.614-4.488-25.118-6.336-36.888a3.125 3.125 0 0 1 1.386-.132z" fill="#fff"/><path d="M216.216 110.335s-.66 36.1-.132 50.828c.528 15.321 5.94 65.492 5.94 65.492h8.184s.33-49.25.66-64.308c.396-16.373 2.376-52.012 2.376-52.012h-17.028z" fill="#407BFF"/><path opacity=".5" d="M216.216 110.335s-.66 36.1-.132 50.828c.528 15.321 5.94 65.492 5.94 65.492h8.184s.33-49.25.66-64.308c.396-16.373 2.376-52.012 2.376-52.012h-17.028z" fill="#fff"/><path d="M223.74 220.802c-.066 0-.066 0-.066-.065-1.452-13.874-4.884-47.475-5.28-59.508-.462-12.296-.066-39.913.066-48.066 0-.066.066-.066.066-.066.066 0 .066.066.066.066-.132 8.153-.528 35.77-.066 48.066.462 12.033 3.828 45.634 5.28 59.508 0 0 0 .065-.066.065z" fill="#407BFF"/><path opacity=".4" d="M223.74 220.802c-.066 0-.066 0-.066-.065-1.452-13.874-4.884-47.475-5.28-59.508-.462-12.296-.066-39.913.066-48.066 0-.066.066-.066.066-.066.066 0 .066.066.066.066-.132 8.153-.528 35.77-.066 48.066.462 12.033 3.828 45.634 5.28 59.508 0 0 0 .065-.066.065z" fill="#fff"/><path d="M220.439 223.433c-.066 0 .462 3.419.462 3.419h9.966l.264-3.025-10.692-.394z" fill="#407BFF"/><path opacity=".1" d="M220.439 223.433c-.066 0 .462 3.419.462 3.419h9.966l.264-3.025-10.692-.394z" fill="#000"/></g><defs><clipPath id="a"><path fill="#fff" d="M0 0h295v245H0z"/></clipPath></defs></svg>