<svg width="56" height="56" viewBox="0 0 56 56" fill="none" xmlns="http://www.w3.org/2000/svg">
<path d="M28 26.8333C26.4529 26.8333 24.9691 26.2187 23.8752 25.1248C22.7812 24.0308 22.1666 22.5471 22.1666 21C22.1666 19.4529 22.7812 17.9692 23.8752 16.8752C24.9691 15.7812 26.4529 15.1667 28 15.1667C29.5471 15.1667 31.0308 15.7812 32.1248 16.8752C33.2187 17.9692 33.8333 19.4529 33.8333 21C33.8333 21.766 33.6824 22.5246 33.3893 23.2323C33.0961 23.9401 32.6664 24.5831 32.1248 25.1248C31.5831 25.6665 30.94 26.0961 30.2323 26.3893C29.5245 26.6824 28.766 26.8333 28 26.8333ZM28 4.66666C23.6681 4.66666 19.5136 6.38749 16.4505 9.45059C13.3875 12.5137 11.6666 16.6681 11.6666 21C11.6666 33.25 28 51.3333 28 51.3333C28 51.3333 44.3333 33.25 44.3333 21C44.3333 16.6681 42.6125 12.5137 39.5494 9.45059C36.4863 6.38749 32.3318 4.66666 28 4.66666Z" fill="#FF5A5F"/>
</svg>
